# xmcd
#
# Track frame offsets:
#	150
#	11858
#	25015
#	39228
#	64458
#	77624
#	102042
#	115571
#	137136
#	154107
#	171400
#	181906
#	191915
#	219580
#	232178
#	243457
#	260214
#	274885
#
# Disc length: 3954
#
# Revision: 2
# Processed by: cddbd v1.5.1PL0 Copyright (c) Steve Scherf et al.
# Submitted via: dBpowerAMP V4.0
# Normalized: r0:DSETVAR1,TDELIM( - ),TSWAP
#
DISCID=040f7012
DTITLE=Various Artist - Chasin' The Blues
DYEAR=2002
DGENRE=Blues
TTITLE0=Sonny Boy Williamson - Don't Start Me To Talkin'
TTITLE1=John Lee Hooker - Devil's Jump
TTITLE2=Mississippi John Hurt - Sliding Delta
TTITLE3=Howlin' Wolf - Little Red Rooster
TTITLE4=Lowell Fulson - Country Boy Blues
TTITLE5=Jimmy Witherspoon - No Rolling Blues
TTITLE6=Joe Turner - Shake, Rattle and Roll
TTITLE7=Sonny Terry and Brownie McGhee - Blues From The Lowlands
TTITLE8=Otis Spann - It Must Have Been The Devil
TTITLE9=Johnny Otis - Barrel House Blues
TTITLE10=Lonnie Johnson - I Can't Sleep Anymore
TTITLE11=Champion Jack Dupree - Me And My Mule
TTITLE12=Joe Liggins - Boom-Chick-A-Boogie
TTITLE13=Leadbelly - When A Man's A Long Way From Home
TTITLE14=Big Joe Williams - Jinx Blues
TTITLE15=Memphis Slim - I Just Landed In Your Town
TTITLE16=Big Bill Broonzy - Baby, Please Don't Go
TTITLE17=Lightnin' Hopkins - Goin' Back Home
EXTD=
EXTT0=
EXTT1=
EXTT2=
EXTT3=
EXTT4=
EXTT5=
EXTT6=
EXTT7=
EXTT8=
EXTT9=
EXTT10=
EXTT11=
EXTT12=
EXTT13=
EXTT14=
EXTT15=
EXTT16=
EXTT17=
PLAYORDER=
